<svg version="1.1" id="Layer_1" xmlns="http://www.w3.org/2000/svg" xmlns:xlink="http://www.w3.org/1999/xlink" x="0px" y="0px"
	 width="100%" viewBox="0 0 288 272" enable-background="new 0 0 288 272" xml:space="preserve">
<path fill="#000000" opacity="1.000000" stroke="none" 
	d="
M266.224487,123.999954 
	C266.225342,160.655457 266.259552,196.810989 266.212524,232.966431 
	C266.186188,253.205353 256.576843,265.692535 237.097763,271.178375 
	C234.640305,271.870453 232.173843,271.952179 229.677139,271.952271 
	C172.861374,271.954346 116.044533,272.147247 59.230461,271.835571 
	C40.314259,271.731781 24.819826,257.164276 24.758055,237.583664 
	C24.571461,178.435852 24.629442,119.286949 24.725912,60.138695 
	C24.757465,40.793011 40.697800,24.746119 60.055145,24.702255 
	C117.537109,24.572002 175.023209,24.281761 232.499725,24.854280 
	C251.547394,25.044010 266.033356,38.811863 266.192871,58.520321 
	C266.368195,80.178864 266.227142,101.839966 266.224487,123.999954 
M145.129654,199.640823 
	C143.470322,201.934662 141.639679,204.126404 140.195999,206.548752 
	C138.478607,209.430328 136.393494,211.660217 133.010513,209.724899 
	C129.782837,207.878387 130.072540,204.597504 131.609192,201.770599 
	C139.678101,186.926605 151.460541,176.332245 167.932877,171.817444 
	C176.681519,169.419586 177.925735,168.757095 179.585541,160.003372 
	C181.106339,151.982819 181.018341,143.808182 181.834579,135.721283 
	C183.349625,120.710838 185.056427,105.719788 186.587296,90.710869 
	C186.899811,87.646721 185.867371,84.757172 184.216400,82.202415 
	C181.508514,78.012192 178.577255,77.960312 175.664291,82.058334 
	C173.875183,84.575264 173.621750,87.590401 173.329697,90.588234 
	C172.895981,95.040031 172.339401,99.481468 171.753082,103.916473 
	C170.318848,114.765175 168.739822,125.596146 167.461166,136.462738 
	C167.217422,138.534332 166.157516,141.282867 169.003784,142.720276 
	C172.042999,144.255142 173.186874,146.665802 171.815063,149.715363 
	C170.354965,152.961151 167.298157,152.568100 164.417267,152.181686 
	C146.963654,149.840530 130.349228,152.794037 114.474327,160.209198 
	C110.407394,162.108856 107.495064,160.410889 107.699104,155.905457 
	C107.795914,153.767776 108.387016,151.656952 108.663460,149.522202 
	C110.451927,135.711243 112.082756,121.877838 114.078087,108.097084 
	C114.591904,104.548439 115.356026,100.795547 111.331764,99.709450 
	C107.561470,98.691895 106.352623,102.722923 104.808701,105.399940 
	C104.567474,105.818192 104.512947,106.347130 104.388069,106.829025 
	C101.719078,117.128662 100.072754,127.630569 98.379150,138.113098 
	C96.105240,152.187424 94.400391,166.329285 93.051292,180.536957 
	C91.357277,198.377060 91.731461,215.718597 100.173615,232.113449 
	C101.751457,235.177673 102.569229,238.655533 103.553772,241.996735 
	C104.545059,245.360916 103.497902,248.128479 100.020065,249.099716 
	C96.711891,250.023575 94.726837,248.035370 93.592911,245.027588 
	C90.951584,238.021301 88.249634,231.037857 85.612335,224.030075 
	C82.895241,216.810318 81.694221,209.328583 81.615974,201.616730 
	C81.353676,175.764969 86.080559,150.451141 90.031433,125.076447 
	C91.351753,116.596634 92.481598,107.956696 95.653229,99.862976 
	C98.457458,92.706848 103.018471,87.368896 111.457138,87.696327 
	C115.397514,87.849197 117.126564,86.428192 117.796997,82.716286 
	C118.174911,80.623894 119.079292,78.582153 120.004845,76.640747 
	C124.217224,67.805054 130.510574,64.267273 140.424133,65.332741 
	C142.605133,65.567139 143.321243,64.380249 144.313629,62.994408 
	C152.757553,51.202641 167.605225,52.451706 174.084366,65.595200 
	C175.078857,67.612602 175.969177,68.185814 178.196518,68.013702 
	C187.454498,67.298317 195.845535,74.721619 196.298340,84.106522 
	C196.981644,98.268982 194.852692,112.289101 193.878479,126.369324 
	C193.432922,132.808884 191.977875,139.239029 192.556732,146.409470 
	C194.367752,145.317596 195.396133,144.789810 196.324539,144.122849 
	C202.248917,139.866867 208.836472,138.144394 216.100418,138.626022 
	C225.198425,139.229233 230.261459,146.342651 227.482452,154.936661 
	C226.666229,157.460770 225.691483,159.968872 224.476181,162.322571 
	C219.124390,172.687332 214.322235,183.283539 209.884598,194.079773 
	C203.286682,210.131699 194.781067,225.363861 180.420731,235.487595 
	C173.391891,240.442780 171.812637,245.510300 172.187073,253.086060 
	C172.402893,257.452484 173.578934,258.815521 177.946198,258.761230 
	C195.108505,258.547760 212.275009,258.689209 229.439880,258.659698 
	C244.355789,258.634033 253.639755,249.256912 253.646393,234.220413 
	C253.659088,205.389999 253.645401,176.559586 253.645004,147.729172 
	C253.644608,118.398819 253.686066,89.068390 253.629791,59.738144 
	C253.605804,47.243088 243.864853,37.413261 231.597107,37.409157 
	C174.602890,37.390099 117.608643,37.384609 60.614445,37.421291 
	C47.837017,37.429516 37.450954,47.277878 37.420761,60.042671 
	C37.281631,118.869698 37.297050,177.697357 37.412205,236.524490 
	C37.434181,247.751678 47.406940,258.512146 57.953449,258.575531 
	C90.948814,258.773834 123.946182,258.622498 156.942612,258.688721 
	C160.290863,258.695435 161.871506,257.595428 161.713272,254.069504 
	C161.549103,250.411758 161.668137,246.737854 161.754654,243.073166 
	C161.871216,238.136414 163.430069,234.192505 168.279846,231.742065 
	C176.571701,227.552444 181.972183,220.305359 187.237030,212.934067 
	C199.684402,195.506577 205.250473,174.747650 214.930359,155.982452 
	C215.758713,154.376648 217.610016,152.357895 215.800125,150.514099 
	C213.992310,148.672394 211.423218,149.139008 209.191650,149.889099 
	C207.478165,150.465012 205.839920,151.365280 204.295105,152.325470 
	C196.877548,156.935837 191.712036,163.634369 187.283340,170.978226 
	C184.435516,175.700607 180.873520,179.449081 175.201416,180.667404 
	C163.130676,183.260101 153.840530,190.364914 145.129654,199.640823 
M146.363144,112.734657 
	C145.545868,120.474586 144.763306,128.218475 143.883469,135.951279 
	C143.696548,137.594055 142.924057,139.231186 144.961578,140.290527 
	C150.852966,143.353516 156.925873,139.777695 157.681488,133.247635 
	C158.955078,122.241608 160.734146,111.295105 162.136124,100.302589 
	C163.287689,91.273552 165.306702,82.322899 164.728760,73.119301 
	C164.529419,69.944717 163.096710,67.631256 160.109100,66.688644 
	C157.059952,65.726624 155.007095,67.744759 153.387695,69.908669 
	C150.885803,73.251854 150.855865,77.354042 150.350830,81.290100 
	C149.044281,91.472488 147.716812,101.652206 146.363144,112.734657 
M134.743011,122.580650 
	C136.368652,108.962563 138.009140,95.346222 139.606354,81.724808 
	C139.896988,79.246429 139.405624,76.954277 136.758972,75.985603 
	C134.251053,75.067703 132.622223,76.788193 131.311783,78.486572 
	C127.944618,82.850548 127.027031,88.071793 126.336029,93.385162 
	C125.036079,103.380997 124.425522,113.450012 122.672379,123.405739 
	C121.399696,130.633041 120.201797,137.930252 120.052559,145.364029 
	C129.640564,144.819672 132.638062,143.182281 133.382706,137.752609 
	C134.032089,133.017807 134.267685,128.226257 134.743011,122.580650 
z"/>
</svg>